<?xml version="1.0" encoding="utf-8"?>
<!-- Generator: Adobe Illustrator 18.1.1, SVG Export Plug-In . SVG Version: 6.00 Build 0)  -->
<svg version="1.1" id="Слой_1" xmlns="http://www.w3.org/2000/svg" xmlns:xlink="http://www.w3.org/1999/xlink" x="0px" y="0px"
	 viewBox="0 0 266.5 228.2" enable-background="new 0 0 266.5 228.2" xml:space="preserve">
<g>
	<linearGradient id="SVGID_1_" gradientUnits="userSpaceOnUse" x1="87.3279" y1="28.572" x2="211.3279" y2="221.572">
		<stop  offset="0" style="stop-color:#F7FF5B"/>
		<stop  offset="2.670218e-002" style="stop-color:#E8FB57"/>
		<stop  offset="0.1348" style="stop-color:#B3EB47"/>
		<stop  offset="0.247" style="stop-color:#83DD39"/>
		<stop  offset="0.3609" style="stop-color:#5BD12D"/>
		<stop  offset="0.477" style="stop-color:#3AC723"/>
		<stop  offset="0.5959" style="stop-color:#20C01C"/>
		<stop  offset="0.7188" style="stop-color:#0EBA16"/>
		<stop  offset="0.8482" style="stop-color:#03B713"/>
		<stop  offset="0.9951" style="stop-color:#00B612"/>
	</linearGradient>
	<path fill="url(#SVGID_1_)" d="M16.3,2C10.9,15.2,4.1,35.5,1.8,61c-1.7,18.8-4.3,48.2,10,80.5c18.8,42.5,54.6,62.2,64.5,67.5
		c12.3,6.5,55,29.2,105.5,13c12.3-4,49.4-18.1,70.5-58c3.6-6.8,22.2-43.7,9-88c-3.3-11.2-13-43.5-46-62c-5.6-3.1-36.2-20.4-71.5-8.5
		c-1.7,0.6-2.9,1-3.4,1.3C112.2,17.9,86.3,49.7,85.8,86c-0.1,7.8-0.4,28,14,45.5c19.5,23.8,49.9,23.2,54,23c5.3-0.2,14.1-0.6,23.5-6
		c4.2-2.4,15.9-10.1,20-24c4.8-16.1-0.8-36.7-15-44.5c-1.2-0.7-12.8-6.8-23-1.5c-6,3.1-9,8.9-10,11c-2.7,5.4-3.4,11.2-2.5,11.5
		c0.8,0.3,2.1-3.9,7-8.5c2.2-2,4-3.7,6.5-4.5c5.8-1.8,12.4,1.9,16,5.5c7.3,7.4,5.8,18,5.5,20c-0.2,1.1-1.8,9.7-9,15.5
		c-11.8,9.4-30.5,4.7-41.5-2c-17.8-10.9-21-30.7-21.5-34c-3.9-26.4,15.7-44.8,17.5-46.5c25.8-23.5,62.9-9.8,65-9
		C224.7,50,233.6,82.9,234.8,88c6.5,25.9-1.5,52.9-18.5,71c-23.1,24.7-54.6,24.2-65.5,24c-21.9-0.3-37.5-8.2-41-10
		c-6.3-3.3-30.8-16.6-41.5-46c-12-33,2.4-62.2,7-71.5c7.9-16.1,18.4-26,20.5-28c20-18.7,40.7-20.7,40-24.5c-0.8-4.5-30.2-1.7-76-1
		C41.4,2.3,26.2,2.2,16.3,2z"/>
	<linearGradient id="SVGID_2_" gradientUnits="userSpaceOnUse" x1="87.3072" y1="28.5853" x2="211.3072" y2="221.5853">
		<stop  offset="0" style="stop-color:#F7FF5B"/>
		<stop  offset="2.670218e-002" style="stop-color:#E8FB57"/>
		<stop  offset="0.1348" style="stop-color:#B3EB47"/>
		<stop  offset="0.247" style="stop-color:#83DD39"/>
		<stop  offset="0.3609" style="stop-color:#5BD12D"/>
		<stop  offset="0.477" style="stop-color:#3AC723"/>
		<stop  offset="0.5959" style="stop-color:#20C01C"/>
		<stop  offset="0.7188" style="stop-color:#0EBA16"/>
		<stop  offset="0.8482" style="stop-color:#03B713"/>
		<stop  offset="0.9951" style="stop-color:#00B612"/>
	</linearGradient>
	<path fill="url(#SVGID_2_)" d="M145.2,228.2c-33.8,0-60.4-14.1-69.1-18.8c-29.8-15.8-52.1-39.2-64.7-67.7
		C-2.9,109.3-0.4,80.2,1.3,61C3.1,40.7,8,20.8,15.9,1.8L16,1.5l0.3,0c14.3,0.2,29,0.2,43.5,0C73,1.3,84.7,0.9,95,0.6
		C105,0.3,113.6,0,120.2,0c11.3,0,15.7,0.8,16.1,2.9c0.3,1.8-2.5,3-7.7,5.2c-7.5,3.1-20.2,8.4-32.4,19.8
		c-3.7,3.4-13.1,13.1-20.4,27.9c-4.7,9.5-18.9,38.3-7,71.1c7,19.2,21.6,35.5,41.3,45.7c5.5,2.9,20.6,9.6,40.8,9.9c1,0,2.3,0,3.7,0
		c25.9,0,46.6-8,61.5-23.9c17.6-18.8,24.6-45.8,18.4-70.5c-2.2-8.8-11.8-38.4-42.2-50.2c-0.5-0.2-12.2-4.7-26.9-4.7
		c-15.1,0-27.7,4.6-37.6,13.6c-2.2,2-21.1,20.2-17.3,46.1c0.8,5.3,4.6,23.5,21.3,33.6c7.4,4.5,16.5,7.2,24.5,7.2
		c6.6,0,12.1-1.7,16.4-5.2c6.9-5.5,8.6-13.6,8.8-15.2c0.5-2.8,1.5-12.7-5.4-19.6c-2.7-2.7-7.5-5.8-12.4-5.8c-1.1,0-2.1,0.2-3.1,0.5
		c-2.4,0.8-4.1,2.4-6.3,4.4c-2.8,2.7-4.5,5.2-5.5,6.8c-0.8,1.3-1.2,1.9-1.8,1.9l-0.3,0c-0.2-0.1-0.4-0.3-0.5-0.6
		c-0.6-1.4,0.2-6.7,2.7-11.6c1.1-2.2,4-8,10.2-11.2c2.8-1.5,6-2.2,9.4-2.2c7,0,13,3.1,14.1,3.7c15.2,8.3,19.7,29.9,15.2,45.1
		c-4.1,13.8-15.5,21.6-20.2,24.3c-9.7,5.5-18.8,5.9-23.7,6.1c-0.4,0-1.1,0-2,0c-7.8,0-34.8-1.7-52.4-23.2
		C85,114.1,85.2,93.7,85.3,86c0.5-38.3,28-69.1,54.9-79.7c0.7-0.3,1.9-0.7,3.5-1.3c8.2-2.8,16.8-4.2,25.5-4.2
		c10.8,0,27.6,2.2,46.3,12.6l0.1,0.1c33.2,18.6,43,51.5,46.2,62.3c12.6,42.3-3.7,78.3-9,88.4c-19.7,37.2-52.8,52.5-70.8,58.2
		C170.1,226.3,157.7,228.2,145.2,228.2z M16.7,2.5C8.9,21.3,4.1,41,2.3,61c-1.7,19.2-4.2,48.1,10,80.3
		c12.5,28.3,34.7,51.6,64.3,67.3c8.7,4.6,35.2,18.7,68.7,18.7c12.4,0,24.7-1.9,36.5-5.7c17.9-5.7,50.7-20.9,70.2-57.8
		c5.3-10,21.5-45.7,9-87.6c-3.2-10.7-13-43.3-45.8-61.7l-0.1-0.1C196.5,4,179.9,1.9,169.2,1.9c-8.6,0-17.1,1.4-25.2,4.1
		c-1.5,0.5-2.7,1-3.4,1.2C114,17.7,86.8,48.1,86.3,86c-0.1,7.6-0.4,27.8,13.9,45.2c17.4,21.2,43.9,22.9,51.6,22.9c0.9,0,1.5,0,2,0
		c4.8-0.2,13.8-0.5,23.3-5.9c4.6-2.7,15.8-10.3,19.8-23.7c5-17-1.6-36.7-14.8-43.9c-1.1-0.6-6.9-3.6-13.6-3.6
		c-3.3,0-6.3,0.7-8.9,2.1c-5.9,3.1-8.7,8.7-9.8,10.8c-2.4,4.8-3,9.5-2.8,10.6c0.2-0.3,0.5-0.8,0.8-1.3c1-1.6,2.7-4.2,5.6-7
		c2.2-2,4-3.8,6.7-4.6c1.1-0.3,2.2-0.5,3.4-0.5c5.2,0,10.3,3.3,13.1,6.1c7.2,7.2,6.1,17.5,5.6,20.4c-0.3,1.6-2,10.1-9.2,15.8
		c-4.5,3.6-10.2,5.4-17,5.4c-8.2,0-17.5-2.7-25.1-7.4c-17-10.4-20.9-28.9-21.7-34.4c-3.9-26.4,15.4-44.9,17.7-46.9
		c10.1-9.2,22.9-13.8,38.2-13.8c14.9,0,26.8,4.6,27.3,4.7c30.8,12,40.6,41.9,42.8,50.8c6.3,25.1-0.8,52.5-18.6,71.5
		c-15,16.1-36,24.2-62.2,24.2c-1.4,0-2.6,0-3.7,0c-20.4-0.3-35.6-7.1-41.2-10.1c-19.9-10.4-34.7-26.8-41.7-46.3
		c-12-33.2,2.3-62.3,7-71.9c7.4-14.9,16.9-24.7,20.6-28.1c12.4-11.5,25.1-16.8,32.7-20c4.1-1.7,7.3-3,7.1-4.1C135,1,123.9,1,120.2,1
		C113.7,1,105,1.3,95,1.6C84.7,1.9,73,2.3,59.9,2.5C45.5,2.7,30.9,2.7,16.7,2.5z"/>
</g>
</svg>
